# xmcd
#
# Track frame offsets:
#	150
#	25266
#	45867
#	65006
#	77832
#	102706
#	114713
#	131349
#	147926
#	163241
#	182402
#
# Disc length: 2684 seconds
#
# Revision: 1
# Processed by: cddbd v1.5.2PL0 Copyright (c) Steve Scherf et al.
# Submitted via: audiograbber 1.82.02
#
DISCID=950a7a0b
DTITLE=Mrs Wainright - Clickity Clack
DYEAR=2007
DGENRE=Folk
TTITLE0=20 Hooded Men
TTITLE1=More Reason (with Mia Dyson)
TTITLE2=Not A Day
TTITLE3=9 Demons
TTITLE4=Clickity Clack
TTITLE5=Big Black Sea
TTITLE6=Love As Many People As You Can
TTITLE7=Wake Up
TTITLE8=I Will Breathe Again
TTITLE9=Farina
TTITLE10=Water's Edge
EXTD=
EXTT0=
EXTT1=
EXTT2=
EXTT3=
EXTT4=
EXTT5=
EXTT6=
EXTT7=
EXTT8=
EXTT9=
EXTT10=
PLAYORDER=
